<?xml version="1.0" standalone="no"?>
<!DOCTYPE svg PUBLIC "-//W3C//DTD SVG 20010904//EN"
 "http://www.w3.org/TR/2001/REC-SVG-20010904/DTD/svg10.dtd">
<svg version="1.0" xmlns="http://www.w3.org/2000/svg"
 width="260.000000pt" height="260.000000pt" viewBox="0 0 260.000000 260.000000"
 preserveAspectRatio="xMidYMid meet">
<metadata>
Created by potrace 1.11, written by Peter Selinger 2001-2013
</metadata>
<g transform="translate(0.000000,260.000000) scale(0.100000,-0.100000)"
fill="#000000" stroke="none">
<path d="M1421 1734 c-140 -37 -223 -146 -215 -281 7 -134 105 -213 294 -238
93 -12 160 -49 160 -87 0 -57 -56 -91 -147 -90 -73 0 -116 13 -195 55 -31 17
-59 29 -61 27 -30 -37 -77 -134 -72 -148 7 -25 143 -87 215 -100 259 -47 442
64 443 268 1 106 -41 168 -143 213 -52 23 -76 30 -145 42 -90 15 -117 24 -147
48 -35 27 -14 86 38 111 59 27 192 13 259 -28 48 -30 52 -28 89 40 20 36 36
71 36 79 0 16 -68 54 -144 79 -68 23 -198 28 -265 10z"/>
<path d="M2087 1735 c-46 -12 -147 -72 -147 -88 0 -12 70 -136 80 -142 5 -3
21 5 37 18 40 33 78 47 124 47 33 0 48 -7 75 -34 28 -28 34 -42 34 -76 0 -23
-7 -56 -15 -73 -8 -18 -89 -108 -180 -202 l-165 -170 0 -73 0 -72 283 2 282 3
3 79 c2 45 -1 82 -7 85 -5 4 -71 6 -145 6 -75 0 -136 2 -136 5 0 4 29 37 65
76 182 192 200 223 200 344 0 74 -4 91 -29 137 -63 115 -208 166 -359 128z"/>
<path d="M115 1728 c-3 -7 -4 -202 -2 -433 l2 -420 85 0 85 0 3 173 2 172 295
0 c162 0 295 -3 296 -7 0 -5 1 -82 2 -173 l2 -165 85 0 85 0 0 430 0 430 -85
0 -85 0 -2 -150 c-1 -82 -2 -159 -2 -170 -1 -20 -8 -20 -293 -20 l-293 1 -5
169 -5 170 -83 3 c-60 2 -84 -1 -87 -10z"/>
</g>
</svg>
